<?xml version="1.0" encoding="utf-8"?>
<!-- Generator: Adobe Illustrator 26.3.1, SVG Export Plug-In . SVG Version: 6.00 Build 0)  -->
<svg version="1.1" id="Layer_1" xmlns="http://www.w3.org/2000/svg" xmlns:xlink="http://www.w3.org/1999/xlink" x="0px" y="0px"
	 viewBox="0 0 800 152" style="enable-background:new 0 0 800 152;" xml:space="preserve">
<style type="text/css">
	.st0{fill:#85FF7F;}
</style>
<path class="st0" d="M173.9,31.4c-48.1,22.3-49.5-2.5-91.5-10.5S-0.1,25.4,3.9,58.4s51.5,40.5,96.5,35.5s54.5-2.5,80.5,12.5
	s53,33,96,20s75-21,125,2s81-7,112-17s49,41,96,35s44-32,68-32s56.5,21.5,90.5,2.5s44-40-10-56s-65-35-94-26
	c-93.6,29-77.5,10.5-140.5-8.5s-86-4-120,10s-52,6-94-18S229.9,5.4,173.9,31.4z"/>
</svg>
